<?xml version="1.0" encoding="iso-8859-1"?>
<!-- Generator: Adobe Illustrator 19.0.0, SVG Export Plug-In . SVG Version: 6.00 Build 0)  -->
<svg version="1.1" id="Capa_1" xmlns="http://www.w3.org/2000/svg" xmlns:xlink="http://www.w3.org/1999/xlink" x="0px" y="0px"
	 viewBox="0 0 512 512" style="enable-background:new 0 0 512 512;" xml:space="preserve">
<g>
	<g>
		<path d="M256,63.806C151.201,63.806,65.941,150.023,65.941,256S151.201,448.194,256,448.194S446.059,361.977,446.059,256
			S360.799,63.806,256,63.806z"/>
	</g>
</g>
<g>
	<g>
		<path d="M256.238,461.885c-8.284,0-15,6.716-15,15V497c0,8.284,6.716,15,15,15s15-6.716,15-15v-20.115
			C271.238,468.601,264.522,461.885,256.238,461.885z"/>
	</g>
</g>
<g>
	<g>
		<path d="M255.762,0c-8.284,0-15,6.716-15,15v20.115c0,8.284,6.716,15,15,15s15-6.716,15-15V15C270.762,6.716,264.046,0,255.762,0z
			"/>
	</g>
</g>
<g>
	<g>
		<path d="M436.851,74.811c-5.857-5.858-15.355-5.858-21.213,0l-14.224,14.224c-5.858,5.858-5.858,15.355,0,21.213
			c2.929,2.93,6.768,4.394,10.607,4.394s7.678-1.464,10.606-4.394l14.224-14.224C442.709,90.166,442.709,80.669,436.851,74.811z"/>
	</g>
</g>
<g>
	<g>
		<path d="M497,240.761h-20.115c-8.284,0-15,6.716-15,15c0,8.285,6.716,15,15,15H497c8.284,0,15-6.716,15-15
			S505.284,240.761,497,240.761z"/>
	</g>
</g>
<g>
	<g>
		<path d="M437.188,415.638l-14.222-14.224c-5.858-5.856-15.355-5.857-21.214-0.001c-5.857,5.858-5.858,15.355-0.001,21.214
			l14.223,14.224c2.93,2.929,6.769,4.394,10.607,4.394c3.838,0,7.678-1.465,10.606-4.393
			C443.044,430.994,443.045,421.497,437.188,415.638z"/>
	</g>
</g>
<g>
	<g>
		<path d="M110.586,401.752c-5.858-5.857-15.356-5.856-21.213-0.001l-14.224,14.223c-5.857,5.858-5.858,15.355-0.001,21.214
			c2.93,2.929,6.769,4.394,10.607,4.394s7.678-1.465,10.606-4.393l14.224-14.223C116.442,417.108,116.443,407.611,110.586,401.752z"
			/>
	</g>
</g>
<g>
	<g>
		<path d="M35.115,241.239H15c-8.284,0-15,6.716-15,15c0,8.285,6.716,15,15,15h20.115c8.284-0.001,15-6.716,15-15
			S43.399,241.239,35.115,241.239z"/>
	</g>
</g>
<g>
	<g>
		<path d="M110.248,89.374L96.026,75.149c-5.859-5.858-15.356-5.858-21.214,0c-5.858,5.858-5.858,15.355-0.001,21.213l14.223,14.224
			c2.93,2.929,6.769,4.394,10.607,4.394s7.678-1.464,10.606-4.393C116.104,104.73,116.105,95.232,110.248,89.374z"/>
	</g>
</g>
<g>
	<g>
		<path d="M174.604,445.111c-7.61-3.282-16.434,0.221-19.718,7.825l-7.974,18.468c-3.283,7.606,0.22,16.434,7.825,19.718
			c1.938,0.836,3.954,1.232,5.938,1.232c5.806,0,11.332-3.39,13.779-9.058l7.974-18.468
			C185.712,457.223,182.209,448.396,174.604,445.111z"/>
	</g>
</g>
<g>
	<g>
		<path d="M357.262,20.879c-7.609-3.286-16.435,0.221-19.718,7.825l-7.974,18.467c-3.282,7.605,0.221,16.433,7.826,19.717
			c1.938,0.837,3.955,1.233,5.939,1.233c5.805,0,11.331-3.39,13.778-9.058l7.974-18.467C368.37,32.99,364.867,24.162,357.262,20.879
			z"/>
	</g>
</g>
<g>
	<g>
		<path d="M493.859,161.346c-3.057-7.7-11.776-11.464-19.476-8.409l-18.696,7.42c-7.7,3.056-11.465,11.775-8.409,19.476
			c2.336,5.885,7.979,9.471,13.947,9.471c1.841,0,3.714-0.341,5.529-1.062l18.696-7.42
			C493.15,177.766,496.915,169.047,493.859,161.346z"/>
	</g>
</g>
<g>
	<g>
		<path d="M483.297,337.545l-18.468-7.974c-7.61-3.281-16.435,0.22-19.718,7.825c-3.283,7.606,0.22,16.434,7.825,19.718
			l18.468,7.974c1.938,0.836,3.954,1.232,5.938,1.232c5.806,0,11.332-3.39,13.779-9.058
			C494.405,349.656,490.902,340.829,483.297,337.545z"/>
	</g>
</g>
<g>
	<g>
		<path d="M359.061,474.384l-7.419-18.696c-3.058-7.7-11.774-11.462-19.476-8.409c-7.7,3.056-11.465,11.775-8.409,19.476
			l7.42,18.696c2.336,5.885,7.979,9.471,13.946,9.471c1.841,0,3.714-0.342,5.529-1.062
			C358.352,490.804,362.117,482.085,359.061,474.384z"/>
	</g>
</g>
<g>
	<g>
		<path d="M64.721,332.166c-3.056-7.7-11.773-11.463-19.475-8.409l-18.696,7.42c-7.7,3.056-11.465,11.775-8.409,19.476
			c2.336,5.885,7.979,9.471,13.946,9.471c1.841,0,3.714-0.342,5.529-1.062l18.696-7.42
			C64.012,348.586,67.777,339.867,64.721,332.166z"/>
	</g>
</g>
<g>
	<g>
		<path d="M59.063,154.887l-18.468-7.974c-7.604-3.285-16.434,0.219-19.718,7.825c-3.282,7.605,0.221,16.433,7.826,19.717
			l18.468,7.974c1.938,0.837,3.954,1.233,5.938,1.233c5.806,0,11.332-3.39,13.779-9.058
			C70.171,166.999,66.668,158.17,59.063,154.887z"/>
	</g>
</g>
<g>
	<g>
		<path d="M188.242,45.246l-7.42-18.697c-3.057-7.7-11.773-11.465-19.476-8.409c-7.7,3.056-11.465,11.775-8.409,19.476l7.421,18.697
			c2.336,5.885,7.979,9.471,13.946,9.471c1.841,0,3.714-0.341,5.529-1.062C187.533,61.666,191.298,52.947,188.242,45.246z"/>
	</g>
</g>
<g>
</g>
<g>
</g>
<g>
</g>
<g>
</g>
<g>
</g>
<g>
</g>
<g>
</g>
<g>
</g>
<g>
</g>
<g>
</g>
<g>
</g>
<g>
</g>
<g>
</g>
<g>
</g>
<g>
</g>
</svg>
